<svg width="48" height="48" viewBox="0 0 48 48" fill="none" xmlns="http://www.w3.org/2000/svg">
<rect width="48" height="48" fill="#E2ACB6"/>
<path d="M38.545 13.7C37.705 13.7467 37.0867 13.84 36.69 13.98C36.3167 14.12 36.06 14.3883 35.92 14.785C35.78 15.1817 35.71 15.8233 35.71 16.71V34.07C35.71 34.9567 35.78 35.5983 35.92 35.995C36.06 36.3917 36.3167 36.66 36.69 36.8C37.0867 36.94 37.705 37.0333 38.545 37.08V37.78C37.4717 37.71 35.99 37.675 34.1 37.675C32.0933 37.675 30.6 37.71 29.62 37.78V37.08C30.46 37.0333 31.0667 36.94 31.44 36.8C31.8367 36.66 32.105 36.3917 32.245 35.995C32.385 35.5983 32.455 34.9567 32.455 34.07V15.31L24.02 37.955H23.46L14.64 15.24V33.72C14.64 34.63 14.71 35.3067 14.85 35.75C15.0133 36.1933 15.3167 36.52 15.76 36.73C16.2033 36.9167 16.8917 37.0333 17.825 37.08V37.78C16.985 37.71 15.795 37.675 14.255 37.675C12.855 37.675 11.77 37.71 11 37.78V37.08C11.8167 37.0333 12.4233 36.9167 12.82 36.73C13.2167 36.52 13.485 36.1933 13.625 35.75C13.765 35.2833 13.835 34.6067 13.835 33.72V16.71C13.835 15.8233 13.765 15.1817 13.625 14.785C13.485 14.3883 13.2167 14.12 12.82 13.98C12.4467 13.84 11.84 13.7467 11 13.7V13C11.77 13.07 12.855 13.105 14.255 13.105C15.4683 13.105 16.46 13.07 17.23 13L24.93 33.265L32.455 13.105H34.1C35.99 13.105 37.4717 13.07 38.545 13V13.7Z" fill="#B34E68"/>
<path d="M37.545 12.7C36.705 12.7467 36.0867 12.84 35.69 12.98C35.3167 13.12 35.06 13.3883 34.92 13.785C34.78 14.1817 34.71 14.8233 34.71 15.71V33.07C34.71 33.9567 34.78 34.5983 34.92 34.995C35.06 35.3917 35.3167 35.66 35.69 35.8C36.0867 35.94 36.705 36.0333 37.545 36.08V36.78C36.4717 36.71 34.99 36.675 33.1 36.675C31.0933 36.675 29.6 36.71 28.62 36.78V36.08C29.46 36.0333 30.0667 35.94 30.44 35.8C30.8367 35.66 31.105 35.3917 31.245 34.995C31.385 34.5983 31.455 33.9567 31.455 33.07V14.31L23.02 36.955H22.46L13.64 14.24V32.72C13.64 33.63 13.71 34.3067 13.85 34.75C14.0133 35.1933 14.3167 35.52 14.76 35.73C15.2033 35.9167 15.8917 36.0333 16.825 36.08V36.78C15.985 36.71 14.795 36.675 13.255 36.675C11.855 36.675 10.77 36.71 10 36.78V36.08C10.8167 36.0333 11.4233 35.9167 11.82 35.73C12.2167 35.52 12.485 35.1933 12.625 34.75C12.765 34.2833 12.835 33.6067 12.835 32.72V15.71C12.835 14.8233 12.765 14.1817 12.625 13.785C12.485 13.3883 12.2167 13.12 11.82 12.98C11.4467 12.84 10.84 12.7467 10 12.7V12C10.77 12.07 11.855 12.105 13.255 12.105C14.4683 12.105 15.46 12.07 16.23 12L23.93 32.265L31.455 12.105H33.1C34.99 12.105 36.4717 12.07 37.545 12V12.7Z" fill="#4C1D29"/>
</svg>
