<svg width="48" height="48" viewBox="0 0 48 48" fill="none" xmlns="http://www.w3.org/2000/svg">
<rect width="48" height="48" fill="#283937"/>
<path d="M25.5 11H26V26.3409C26 30.3551 25.2051 33.3082 23.6154 35.2003C22.0256 37.0668 19.9487 38 17.3846 38C15.7692 38 14.3974 37.8594 13.2692 37.5781C12.141 37.2713 11.0769 36.7216 10.0769 35.929C8.02564 34.3438 7 31.1477 7 26.3409V11H10.1923V26.3026C10.1923 30.956 10.8974 34.0625 12.3077 35.6222C13.0256 36.3892 13.7692 36.9134 14.5385 37.1946C15.3333 37.4759 16.2821 37.6165 17.3846 37.6165C19.8462 37.6165 21.8077 36.7216 23.2692 34.9318C24.7564 33.1165 25.5 30.2401 25.5 26.3026V11Z" fill="#CFBEAD"/>
<path d="M41.1619 11V11.3857H29.1619V22.9571H40.2857V23.3429H29.1619V37.6143H42V38H26V11H41.1619Z" fill="#CFBEAD"/>
</svg>
